<svg xmlns="http://www.w3.org/2000/svg" viewBox="0 0 500 500"><g id="freepik--background-complete--inject-18"><rect y="382.4" width="500" height="0.25" style="fill:#ebebeb"></rect><rect x="416.78" y="398.49" width="33.12" height="0.25" style="fill:#ebebeb"></rect><rect x="322.53" y="401.21" width="8.69" height="0.25" style="fill:#ebebeb"></rect><rect x="396.59" y="389.21" width="19.19" height="0.25" style="fill:#ebebeb"></rect><rect x="52.46" y="390.89" width="43.19" height="0.25" style="fill:#ebebeb"></rect><rect x="104.56" y="390.89" width="6.33" height="0.25" style="fill:#ebebeb"></rect><rect x="131.47" y="395.11" width="93.68" height="0.25" style="fill:#ebebeb"></rect><path d="M237,337.8H43.91a5.71,5.71,0,0,1-5.7-5.71V60.66A5.71,5.71,0,0,1,43.91,55H237a5.71,5.71,0,0,1,5.71,5.71V332.09A5.71,5.71,0,0,1,237,337.8ZM43.91,55.2a5.46,5.46,0,0,0-5.45,5.46V332.09a5.46,5.46,0,0,0,5.45,5.46H237a5.47,5.47,0,0,0,5.46-5.46V60.66A5.47,5.47,0,0,0,237,55.2Z" style="fill:#ebebeb"></path><path d="M453.31,337.8H260.21a5.72,5.72,0,0,1-5.71-5.71V60.66A5.72,5.72,0,0,1,260.21,55h193.1A5.71,5.71,0,0,1,459,60.66V332.09A5.71,5.71,0,0,1,453.31,337.8ZM260.21,55.2a5.47,5.47,0,0,0-5.46,5.46V332.09a5.47,5.47,0,0,0,5.46,5.46h193.1a5.47,5.47,0,0,0,5.46-5.46V60.66a5.47,5.47,0,0,0-5.46-5.46Z" style="fill:#ebebeb"></path><path d="M263.24,90.31a5.25,5.25,0,0,1,5.25-5.25,5.41,5.41,0,0,1,1.51.22,10.81,10.81,0,0,1-.12-1.61A11.12,11.12,0,0,1,281,72.55a11.58,11.58,0,0,1,2.05.19,9.72,9.72,0,0,1,18,4.91h.16a9,9,0,0,1,0,17.92H268.34A5.24,5.24,0,0,1,263.24,90.31Z" style="fill:#f0f0f0"></path><path d="M392.3,273.44a5.25,5.25,0,0,1,5.25-5.25,5.35,5.35,0,0,1,1.51.22,12.07,12.07,0,0,1-.12-1.61,11.12,11.12,0,0,1,11.12-11.12,11.49,11.49,0,0,1,2.05.19,9.72,9.72,0,0,1,18,4.91h.17a9,9,0,0,1,0,17.91H397.41A5.25,5.25,0,0,1,392.3,273.44Z" style="fill:#f0f0f0"></path><path d="M79.06,216.57a5.25,5.25,0,0,1,5.25-5.25,5,5,0,0,1,1.51.23,10.84,10.84,0,0,1-.12-1.62,11.12,11.12,0,0,1,11.12-11.12,10.64,10.64,0,0,1,2.05.2,9.72,9.72,0,0,1,18,4.91h.16a9,9,0,0,1,0,17.92H84.16A5.25,5.25,0,0,1,79.06,216.57Z" style="fill:#f0f0f0"></path><path d="M333.83,336.06a3.17,3.17,0,0,1,3.17-3.17,3.39,3.39,0,0,1,.91.13,7.63,7.63,0,0,1-.07-1,6.72,6.72,0,0,1,6.72-6.72,7.15,7.15,0,0,1,1.24.11,5.87,5.87,0,0,1,10.89,3h.1a5.42,5.42,0,1,1,0,10.83H336.91A3.17,3.17,0,0,1,333.83,336.06Z" style="fill:#f0f0f0"></path><path d="M261.14,200.79a3.18,3.18,0,0,1,3.18-3.18,3.09,3.09,0,0,1,.91.14,6.37,6.37,0,0,1-.07-1,6.72,6.72,0,0,1,6.72-6.72,6.43,6.43,0,0,1,1.24.12,5.87,5.87,0,0,1,10.89,3h.1a5.42,5.42,0,0,1,0,10.83H264.23A3.17,3.17,0,0,1,261.14,200.79Z" style="fill:#f0f0f0"></path><path d="M419.15,112.3a3.17,3.17,0,0,1,3.18-3.17,3.09,3.09,0,0,1,.91.14,6.37,6.37,0,0,1-.07-1,6.72,6.72,0,0,1,6.72-6.72,6.26,6.26,0,0,1,1.23.12,5.88,5.88,0,0,1,10.9,3h.09a5.42,5.42,0,1,1,0,10.83H422.24A3.16,3.16,0,0,1,419.15,112.3Z" style="fill:#f0f0f0"></path></g><g id="freepik--Shadow--inject-18"><ellipse id="freepik--path--inject-18" cx="250" cy="416.24" rx="193.89" ry="11.32" style="fill:#f5f5f5"></ellipse></g><g id="freepik--Trees--inject-18"><polygon points="323.19 194.06 328.18 193.22 322.52 192.49 318.82 190.25 322.43 184 326.37 181.25 321.49 183.19 319.84 185.46 319.84 185.46 319.45 182.7 320.76 179.42 318.76 182.54 318.86 186.81 316.72 189.75 307.53 191.25 308.42 195.88 317.86 192.24 321.62 194.03 322.86 196.99 326.88 198.67 323.81 196.36 323.19 194.06" style="fill:#00DAAA"></polygon><polygon points="299.58 307.95 303.2 311.49 300.46 306.48 300.08 302.17 307.26 301.4 311.81 302.96 307.36 300.16 304.56 300.17 304.56 300.17 306.55 298.23 309.97 297.35 306.27 297.57 302.88 300.18 299.25 300.18 292.62 293.64 289.4 297.09 297.91 302.56 298.68 306.67 297.02 309.41 298.03 313.65 298.09 309.81 299.58 307.95" style="fill:#00DAAA"></polygon><polygon points="250.73 117.14 252.27 112.32 252.19 118.02 253.87 122.01 260.58 119.33 263.87 115.82 261.25 120.38 258.77 121.69 258.77 121.69 261.44 122.46 264.88 121.64 261.5 123.17 257.28 122.47 254.07 124.16 251.28 133.04 246.82 131.5 251.78 122.68 250.53 118.7 247.78 117.05 246.69 112.83 248.54 116.2 250.73 117.14" style="fill:#00DAAA"></polygon><polygon points="289.17 160.92 296.49 156.02 297.02 147.38 294.34 145.03 294.46 142.16 295.18 144.31 297.33 146.1 299.25 142.76 298.53 146.82 298.53 151.13 300.91 151.54 302.7 149.45 301.75 152.13 304.26 153.09 301.06 152.57 298.53 152.55 298.82 156.15 301.97 157.74 303.66 156.14 302.94 157.93 306.05 158.56 309.13 157.09 306.05 159.72 301.73 159.56 298.45 158.56 292.46 164.98 289.17 160.92" style="fill:#00DAAA"></polygon><polygon points="308.16 259.3 316.63 261.69 323.55 256.49 323.6 252.93 325.86 251.16 324.69 253.1 324.72 255.9 328.51 255.19 324.95 257.27 321.68 260.07 322.91 262.15 325.66 262.16 323 263.18 323.9 265.7 322.22 262.93 320.59 260.99 318.04 263.55 318.87 266.98 321.19 267.23 319.36 267.84 320.9 270.61 324.01 272.01 320.01 271.37 317.34 267.98 315.97 264.83 307.2 264.44 308.16 259.3" style="fill:#00DAAA"></polygon><polygon points="169.31 346.61 167.99 351.49 167.81 345.79 165.94 341.89 159.37 344.88 156.25 348.53 158.65 343.86 161.07 342.44 161.07 342.44 158.37 341.79 154.97 342.77 158.27 341.08 162.52 341.59 165.65 339.75 168.03 330.74 172.55 332.08 168.01 341.12 169.43 345.04 172.26 346.56 173.54 350.73 171.54 347.45 169.31 346.61" style="fill:#00DAAA"></polygon><polygon points="149.27 321.16 143.53 327.83 145.34 336.3 148.55 337.85 149.2 340.64 147.93 338.76 145.38 337.61 144.43 341.35 144.03 337.24 142.88 333.1 140.47 333.34 139.31 335.83 139.51 332.99 136.83 332.74 140.05 332.38 142.5 331.72 141.25 328.33 137.79 327.64 136.59 329.64 136.8 327.72 133.64 327.95 131.07 330.18 133.33 326.83 137.53 325.83 140.97 325.91 145.01 318.12 149.27 321.16" style="fill:#00DAAA"></polygon><polygon points="131 305.63 125.1 312.17 116.47 311.45 114.53 308.46 111.67 308.17 113.7 309.19 115.16 311.57 111.58 312.99 115.7 312.86 119.96 313.48 120.03 315.9 117.7 317.37 120.5 316.81 121.08 319.44 121.03 316.2 121.38 313.69 124.89 314.5 126.02 317.84 124.18 319.28 126.06 318.83 126.23 322 124.34 324.83 127.39 322.16 127.84 317.87 127.33 314.47 134.54 309.47 131 305.63" style="fill:#00DAAA"></polygon><path d="M254.31,133s-1-4.44,4.9-5.52c0,0-.9,2.33,0,3.77,0,0,.94-2.33,5.67-2.33s3.29-4,3.29-4,3.94,3.2,2.51,8.07c0,0,6.69.22,6.3-3.37s6.74-4.08,6.74-4.08a2.9,2.9,0,0,0-1.93,3.42c.36,2.82,4.3,6.11,2.86,10.38,0,0,4.38.23,4.52-2.59,0,0,4.44,8.11,1,12,0,0,2.15,1.79,3.58,1.07a6.43,6.43,0,0,1-4.62,4.49,5.71,5.71,0,0,0,4.62,0s-.21,6-11.21,4.15S254.31,133,254.31,133Z" style="fill:#263238"></path><path d="M254.31,133s-1-4.44,4.9-5.52c0,0-.9,2.33,0,3.77,0,0,.94-2.33,5.67-2.33s3.29-4,3.29-4,3.94,3.2,2.51,8.07c0,0,6.69.22,6.3-3.37s6.74-4.08,6.74-4.08a2.9,2.9,0,0,0-1.93,3.42c.36,2.82,4.3,6.11,2.86,10.38,0,0,4.38.23,4.52-2.59,0,0,4.44,8.11,1,12,0,0,2.15,1.79,3.58,1.07a6.43,6.43,0,0,1-4.62,4.49,5.71,5.71,0,0,0,4.62,0s-.21,6-11.21,4.15S254.31,133,254.31,133Z" style="fill:#fff;opacity:0.4"></path><path d="M262.73,140.37c-3.22-5,1.89-8.08,5-8.13,0,0-.84,1.9,0,3.16,0,0,11.11,2.15,12.07-2.36,0,0,1.55,3.5-.6,5.54a3.81,3.81,0,0,0,2.27-3.18s1.77,4.61-1.09,6.76c0,0,4,1.22,6.82-1.08,0,0,.6,4.9-1.43,6.46,0,0,2-.48,2.51-2,0,0,0,4.19-2.27,5.5a4,4,0,0,0,3.14.36s-.91,4.17-9.59,2.21S262.73,140.37,262.73,140.37Z" style="fill:#fff;opacity:0.4"></path><path d="M267.13,143.17c-1.61-2.31-.81-4.48,1-4.71a3.33,3.33,0,0,0,.61,2.35s5.84.63,9.18-1a5.89,5.89,0,0,1-.92,4.42,14.11,14.11,0,0,0,6.3,0,12,12,0,0,1-.72,4.66l1.27-1.31s-.31,4.06-4.37,3.58S268,144.35,267.13,143.17Z" style="fill:#fff;opacity:0.4"></path></g><g id="freepik--factory-2--inject-18"><polygon points="116.04 282.54 121.38 295.84 93.04 304.22 89.78 296.08 116.04 282.54" style="fill:#263238"></polygon><polygon points="116.05 282.54 121.38 295.84 108.87 299.53 104.03 300.97 93.04 304.22 89.77 296.08 99.96 290.83 104.45 288.52 116.05 282.54" style="fill:#fff;opacity:0.2"></polygon><rect x="85.88" y="298.96" width="10.12" height="2.75" transform="translate(-153.91 496.6) rotate(-111.87)" style="fill:#263238"></rect><rect x="85.88" y="298.96" width="10.12" height="2.75" transform="translate(-153.91 496.6) rotate(-111.87)" style="fill:#fff;opacity:0.4"></rect><polygon points="104.45 288.52 108.87 299.53 104.03 300.97 99.96 290.83 104.45 288.52" style="fill:#fff;opacity:0.4"></polygon><polygon points="108.41 263.54 113.75 276.84 85.42 285.22 82.15 277.07 108.41 263.54" style="fill:#263238"></polygon><polygon points="108.42 263.54 113.76 276.84 101.24 280.53 96.4 281.97 85.41 285.22 82.15 277.08 92.33 271.83 96.82 269.52 108.42 263.54" style="fill:#fff;opacity:0.2"></polygon><rect x="78.25" y="279.96" width="10.12" height="2.75" transform="translate(-146.75 463.45) rotate(-111.87)" style="fill:#263238"></rect><rect x="78.25" y="279.96" width="10.12" height="2.75" transform="translate(-146.75 463.45) rotate(-111.87)" style="fill:#fff;opacity:0.4"></rect><polygon points="96.82 269.52 101.24 280.53 96.4 281.97 92.33 271.83 96.82 269.52" style="fill:#fff;opacity:0.4"></polygon><polygon points="100.79 244.53 106.13 257.84 77.79 266.22 74.52 258.07 100.79 244.53" style="fill:#263238"></polygon><polygon points="100.79 244.53 106.13 257.84 93.61 261.53 88.77 262.97 77.79 266.21 74.52 258.08 84.7 252.83 89.19 250.52 100.79 244.53" style="fill:#fff;opacity:0.2"></polygon><rect x="70.62" y="260.96" width="10.12" height="2.75" transform="translate(-139.58 430.29) rotate(-111.87)" style="fill:#263238"></rect><rect x="70.62" y="260.96" width="10.12" height="2.75" transform="translate(-139.58 430.29) rotate(-111.87)" style="fill:#fff;opacity:0.4"></rect><polygon points="89.19 250.52 93.61 261.53 88.77 262.97 84.7 252.83 89.19 250.52" style="fill:#fff;opacity:0.4"></polygon></g><g id="freepik--factory-1--inject-18"><polygon points="164.43 107.07 162.69 103.43 155.17 111.5 153.43 107.87 145.91 115.94 144.16 112.3 136.64 120.37 134.9 116.73 125.83 126.47 125.72 126.53 113.56 101.13 107.81 103.88 130.93 152.17 133.1 151.13 136.68 149.42 185.01 126.28 175.32 106.04 174.05 103.39 171.95 99 164.43 107.07" style="fill:#263238"></polygon><polygon points="164.43 107.07 162.69 103.43 155.17 111.5 153.43 107.87 145.91 115.94 144.16 112.3 136.64 120.37 134.9 116.73 125.83 126.47 125.72 126.53 113.56 101.13 107.81 103.88 130.93 152.17 133.1 151.13 136.68 149.42 185.01 126.28 175.32 106.04 174.05 103.39 171.95 99 164.43 107.07" style="fill:#fff;opacity:0.2"></polygon><rect x="159.92" y="115.49" width="31.18" height="14.55" transform="translate(-35.81 87.82) rotate(-25.58)" style="fill:#263238"></rect><path d="M154.18,124.58l-4.66,2.23a1.33,1.33,0,0,0-.63,1.78l4.4,9.19a1.33,1.33,0,0,0,1.47.73l.88,1.83.77-.37-.86-1.79,1.47-.7.85,1.79.77-.37-.86-1.79,1.47-.7.86,1.79.77-.37L160,136a1.33,1.33,0,0,0,.36-1.6l-4.4-9.19A1.34,1.34,0,0,0,154.18,124.58Z" style="fill:#263238"></path><path d="M145.58,128.7l-4.66,2.23a1.34,1.34,0,0,0-.63,1.78l4.4,9.19a1.32,1.32,0,0,0,1.47.72l.88,1.84.77-.37-.86-1.8,1.47-.7.86,1.8L150,143l-.86-1.79,1.47-.71.86,1.8.77-.37-.88-1.83a1.34,1.34,0,0,0,.36-1.61l-4.4-9.18A1.33,1.33,0,0,0,145.58,128.7Z" style="fill:#263238"></path><path d="M137,132.82l-4.66,2.23a1.35,1.35,0,0,0-.63,1.78l4.4,9.18a1.34,1.34,0,0,0,1.48.73l.87,1.83.77-.36-.86-1.8,1.47-.7.86,1.79.76-.36-.85-1.8,1.46-.7.86,1.8.77-.37-.88-1.84a1.33,1.33,0,0,0,.36-1.6l-4.4-9.19A1.34,1.34,0,0,0,137,132.82Z" style="fill:#263238"></path><rect x="159.92" y="115.49" width="31.18" height="14.55" transform="translate(-35.81 87.82) rotate(-25.58)" style="fill:#fff;opacity:0.4"></rect><path d="M154.18,124.58l-4.66,2.23a1.33,1.33,0,0,0-.63,1.78l4.4,9.19a1.33,1.33,0,0,0,1.47.73l.88,1.83.77-.37-.86-1.79,1.47-.7.85,1.79.77-.37-.86-1.79,1.47-.7.86,1.79.77-.37L160,136a1.33,1.33,0,0,0,.36-1.6l-4.4-9.19A1.34,1.34,0,0,0,154.18,124.58Z" style="fill:#fff;opacity:0.4"></path><path d="M145.58,128.7l-4.66,2.23a1.34,1.34,0,0,0-.63,1.78l4.4,9.19a1.32,1.32,0,0,0,1.47.72l.88,1.84.77-.37-.86-1.8,1.47-.7.86,1.8L150,143l-.86-1.79,1.47-.71.86,1.8.77-.37-.88-1.83a1.34,1.34,0,0,0,.36-1.61l-4.4-9.18A1.33,1.33,0,0,0,145.58,128.7Z" style="fill:#fff;opacity:0.4"></path><path d="M137,132.82l-4.66,2.23a1.35,1.35,0,0,0-.63,1.78l4.4,9.18a1.34,1.34,0,0,0,1.48.73l.87,1.83.77-.36-.86-1.8,1.47-.7.86,1.79.76-.36-.85-1.8,1.46-.7.86,1.8.77-.37-.88-1.84a1.33,1.33,0,0,0,.36-1.6l-4.4-9.19A1.34,1.34,0,0,0,137,132.82Z" style="fill:#fff;opacity:0.4"></path></g><g id="freepik--serum-bag--inject-18"><path d="M99.8,232.28a33.26,33.26,0,0,0,23.65-9.79,1.36,1.36,0,1,0-1.92-1.93,30.73,30.73,0,0,1-52.47-21.73V148.57a1.36,1.36,0,0,0-2.72,0v50.26A33.49,33.49,0,0,0,99.8,232.28Z" style="fill:#263238"></path><path d="M79.83,104.3a4.61,4.61,0,0,1-4.76-4.48V98.34A7.35,7.35,0,0,0,67.31,91a7.65,7.65,0,0,0-7,7.77v.87a4.68,4.68,0,0,1-4.66,4.67A4.67,4.67,0,0,0,51,109v52a5.62,5.62,0,0,0,5.62,5.62H59a5.62,5.62,0,0,1,5.62,5.62v4h6.12v-4a5.61,5.61,0,0,1,5.62-5.62h2.4A5.61,5.61,0,0,0,84.41,161V109A4.68,4.68,0,0,0,79.83,104.3ZM67.56,94.55a2.6,2.6,0,1,1-2.6,2.6A2.59,2.59,0,0,1,67.56,94.55Z" style="fill:#00DAAA"></path><path d="M79.83,104.3a4.61,4.61,0,0,1-4.76-4.48V98.34A7.35,7.35,0,0,0,67.31,91a7.65,7.65,0,0,0-7,7.77v.87a4.68,4.68,0,0,1-4.66,4.67A4.67,4.67,0,0,0,51,109v52a5.62,5.62,0,0,0,5.62,5.62H59a5.62,5.62,0,0,1,5.62,5.62v4h6.12v-4a5.61,5.61,0,0,1,5.62-5.62h2.4A5.61,5.61,0,0,0,84.41,161V109A4.68,4.68,0,0,0,79.83,104.3ZM67.56,94.55a2.6,2.6,0,1,1-2.6,2.6A2.59,2.59,0,0,1,67.56,94.55Z" style="fill:#fff;opacity:0.7000000000000001"></path><rect x="53.8" y="106.82" width="27.81" height="56.13" rx="1.09" transform="translate(135.41 269.77) rotate(180)" style="opacity:0.1"></rect><path d="M81.61,139.48v20.66A2.81,2.81,0,0,1,78.8,163H56.61a2.81,2.81,0,0,1-2.81-2.81V139.48Z" style="fill:#00DAAA"></path><g style="opacity:0.30000000000000004"><path d="M59.23,160.14a3.42,3.42,0,0,1-3.41-3.42V112.28a3.41,3.41,0,0,1,3.41-3.41H75.72a.91.91,0,0,1,0,1.81H59.23a1.6,1.6,0,0,0-1.6,1.6v44.44a1.61,1.61,0,0,0,1.6,1.61.91.91,0,1,1,0,1.81Z" style="fill:#fff"></path></g></g><g id="freepik--Earth--inject-18"><path d="M98.77,245.34q-.72-5.39-.91-10.7a109.11,109.11,0,0,1,94.48-112l2-.25A108.78,108.78,0,0,1,233.85,125h0A109.25,109.25,0,0,1,313,205.2c.85,3.58,1.54,7.25,2,11a109.13,109.13,0,1,1-216.3,29.16Z" style="fill:#00DAAA"></path><g style="opacity:0.5"><path d="M98.77,245.34q-.72-5.39-.91-10.7a109.11,109.11,0,0,1,94.48-112l2-.25A108.78,108.78,0,0,1,233.85,125h0A109.25,109.25,0,0,1,313,205.2c.85,3.58,1.54,7.25,2,11a109.13,109.13,0,1,1-216.3,29.16Z" style="fill:#fff"></path></g><path d="M184.55,313.75c-2,.46-2.6,3.07-2.75,5.16q-.35,4.71-.68,9.41c3.94,1.27,4.21,5.86,2.87,9.16a109.18,109.18,0,0,1-85.22-92.14q-.72-5.39-.91-10.7a2.48,2.48,0,0,1,.26-.19c2.77-1.77,5.42.46,7.82,1.6.55.25,7.44,2.58,7.41,1.69a29.11,29.11,0,0,0,1.53,8.43.84.84,0,0,0,.36.53c.46.24.86-.41,1-.92.24-1.29.24-2.63.55-3.91a4.45,4.45,0,0,1,2.22-3.12c1.2-.56,2.63-.27,3.91-.61a5.47,5.47,0,0,0,3.36-3.27,18.27,18.27,0,0,0,1-4.56c2,3.2,5.57.61,8.2,3.06.85.79,1.89,1.95,2.9,1.38s.85-2.27,1.92-2.54c.74-.2,1.4.57,1.61,1.31a8.11,8.11,0,0,0,.6,2.21,2,2,0,0,0,2.82.49c.76-.6.95-1.66,1.37-2.54s1.42-1.7,2.27-1.23a1.47,1.47,0,0,1,.49.47c.94,1.35.31,3.21-.53,4.63S146.93,240.4,147,242a1.36,1.36,0,0,0,1.82-.64,2.22,2.22,0,0,1,.31-.68c.37-.4,1-.15,1.52.09a9.84,9.84,0,0,0,7.53.36c-.24-3.32-.47-6.64-.71-10,.75-.12,1.19-.22,1.37-1,2.79,2.09,5.39,4.4,8.39,6.22a2,2,0,0,1,.91.85,6.16,6.16,0,0,1,.13,1.3c.27,1.43,2.25,1.56,3.69,1.34.45.18.3.9-.09,1.18s-.91.38-1.25.72a1.86,1.86,0,0,0-.12,2,4.79,4.79,0,0,0,6.35,2.21,1.43,1.43,0,0,0,.66-.58c.3-.58-.14-1.25-.29-1.89-.59-2.52,2.24-2.28,3.61-1.74,1.84.74,3.13,3.16,3.69,4.94.65,2.07,4,16,8.51,13.42a2.11,2.11,0,0,0,.85-1.13c.52-1.36.28-2.9.6-4.33s1.72-2.86,3.07-2.32c.55.22.94.71,1.46,1,1.47.72,3.26-.6,4.82-.11a13.49,13.49,0,0,1,1.93,1.13c.67.35,1.65.36,2-.3s-.3-1.69,0-2.48a1.32,1.32,0,0,1,2.18-.13,2.28,2.28,0,0,1-.06,2.49,3.11,3.11,0,0,0-.6,1.24c-.07.82.78,1.39,1.51,1.77l3.51,1.82a2,2,0,0,1-1.33,1.66c-.69.29-1.46.38-2.14.71-3.29,1.58-2.63,6.68-7.26,6.25a2.2,2.2,0,0,0-2.83-2.08c-1.6.62-2.36,3.11-4.06,2.85-.59-.09-1.09-.53-1.68-.59-1.64-.17-2.11,2.37-2.42,3.47-1,3.64,1.32,3.76,1.62,6.85.14,1.42-.76,2.74-.84,4.16s.54,2.57.53,3.88c0,3.59-5,2.05-7.1,1.9,1.38,1.86,0,4.51-1.63,6.14-2.54,2.49-2.08,2.24-2,5.37a2.28,2.28,0,0,1-1.08,2.08c-1.28.65-2.76-.52-4.2-.47-.69,0-1.35.32-2,.29-1.8-.07-2.7-2.16-4-3.39a5,5,0,0,0-4.41-1.16,10.21,10.21,0,0,0,.34,2.75l3.21,1.45a6.84,6.84,0,0,1,2.58,1.7,5.48,5.48,0,0,0,1.11,1.32c1,.64,2.23,0,3.36-.2,2.76-.54,7.5.62,10.28,1.16,3,.57,4.23,2.46,7,3a.84.84,0,0,1,.45,1.19,1.85,1.85,0,0,1-1.17.84,5.12,5.12,0,0,1-3.37-.12c1.4.55-2,4.19-2.7,4.43-1.1.4-2.73-.26-3.89-.17-2.88.22-4.47,1-2.19,3.87.87,1.1,1.9,2.51,1.26,3.75a1.83,1.83,0,0,0-2,1.11,3.91,3.91,0,0,0-.06,2.44,2.46,2.46,0,0,0,.79,1.43,4.8,4.8,0,0,1,.74.5c.63.74-.35,1.75-1.2,2.21" style="fill:#00DAAA;isolation:isolate"></path><path d="M311.67,200.08A110.08,110.08,0,0,0,233.86,125a24.46,24.46,0,0,1-2.44,4.88c-2,2.84-5.84,5.48-5,9.42.12.52,6,8.51,3.88,8.83a5.76,5.76,0,0,0-3.59,1.45c-.28.32-.49.71-.8,1-1,.93-2.53.67-3.88.74s-3,1.14-2.52,2.4c.35.92,1.72,1.58,1.31,2.47-.18.37-.61.55-.82.89-.47.74.31,1.7.16,2.56-.22,1.2-1.93,1.32-3.08.89s-2.44-1.1-3.49-.48c-.05,1.11.12,2.54,1.19,2.81a4.42,4.42,0,0,0,1.09,0c3,0,2.86,3.91,3.28,6a2.44,2.44,0,0,0,.46,1.18c1,1.11,3.05-.3,4.31.52s.51,2.94,1.34,4.21a5,5,0,0,1,4.5-1.86c.53.07,1.19.54.9,1-1,.79-2.59.42-3.63,1.19-2.16,1.62.45,4.24-.64,6-1.67,2.69-5-.3-5.32-2.62a3.11,3.11,0,0,0-.26-1.1c-.57-1-2.13-.64-3.19-.11.66.53.12,1.69-.69,2a7.6,7.6,0,0,1-2.52,0c-.85,0-1.86.41-1.95,1.26a5.55,5.55,0,0,0,.11,1,2.5,2.5,0,0,1-2.28,2.43,5.9,5.9,0,0,1-3.51-.91,2.57,2.57,0,0,1-1.14-1,3.18,3.18,0,0,1,0-2,9.77,9.77,0,0,0,.07-2.7c-.09-.88-.64-2-1.51-1.8s-1,1.13-.9,1.9.17,1.68-.42,2.18a3.84,3.84,0,0,0-4.15,3.51,3.27,3.27,0,0,1-.12,1c-.41,1-2,.9-2.65,1.8a2.6,2.6,0,0,0,.2,2.49c.66,1.49,1,4,1.78,6.1s1.82,3.5,3.92,3.34a6.1,6.1,0,0,0,4.43-3.14c.12.53,3.06,4.69,3.68,5,1.29.55,3.72-1.84,4.75.69.2.48.21,1,.37,1.5a2.2,2.2,0,0,0,1.61,1.5,1.63,1.63,0,0,0,1.82-1.08c.09-.35,0-.72.11-1.07.4-2,4.57-2.24,5.92-3.09.88-.56,1.58-1.35,2.4-2a1.38,1.38,0,0,1,.66-.33c.84-.12,1.22,1,1.28,1.87a2.47,2.47,0,0,0,3.16-2.81c1.87-.24,3.86-.9,5.65-.49-.79-1.31-.63-2.77-.72-4.27a2.08,2.08,0,0,1,2.93-2c1.28.62,1.07,2,1.45,3.09.9,2.64.42,2.21-.23,4.86-1.26,5.12,3.34,10.83,8.77,7.24,1.55-1,2.6-2.75,4.31-3.49,1-.43,2.16-.53,2.87-1.32a4.13,4.13,0,0,0,.65-3.09c-.19-3-.49-6.32-2.6-8.49a16,16,0,0,1-1.58-1.92l-.45-.25a2,2,0,0,1-.69-.82,2.1,2.1,0,0,1-.19-1.08c0-.11.05-.2.07-.31-.21-1.6-.05-3.35-.53-4.91.81.23,1.63.42,2.45.6a3.47,3.47,0,0,1,.55-.16c-.1-.92-1.86-1.57-1.3-2.37l2.47-.43a.93.93,0,0,1,.72.07.89.89,0,0,1,.28.65c.09.61.18,1.21.26,1.81a2.24,2.24,0,0,1,1.18,1.13c.4.06.81.1,1.22.14l.22,0,.62-.52a5.77,5.77,0,0,1,1.19-.8,7.87,7.87,0,0,1,1.39-1,11.54,11.54,0,0,1,1.55-5.76,2.14,2.14,0,0,1,1.11-1.09,2.51,2.51,0,0,1,1.47.18l3.44,1.21c1.05.37,2.23.85,2.65,1.89a4,4,0,0,1-.23,2.79c-.74,2.17-1.47,4.36-2.2,6.55a7.5,7.5,0,0,0-.59,3.29c.37,2.91,3.76,4.34,5.26,6.86-2.08,1.15-4.5,3-4,5.32.42,1.93,2.62,2.82,3.89,4.33,1,1.22.42,2.77,1.61,3.88.69.66,1.59,1.13,2.06,2s.17,2.19-.78,2.26a33.25,33.25,0,0,1,6,1.46c2.33.89,4.79,2.34,7.15,1.53a6.7,6.7,0,0,0,2.79-2.19c.65-.79,1.65-1.72,2.52-1.2-.12.5.38.93.86,1.1a3.27,3.27,0,0,1,1.38.61c.62.67.55,2.21,1.46,2.1,3.49-1.86.58-6.3,3.52-8.61,2.32-1.82,6.4-.47,9-.08A35.24,35.24,0,0,0,311.67,200.08Z" style="fill:#00DAAA;isolation:isolate"></path><path d="M140.14,203.92a4.33,4.33,0,0,0-1.51,3.37,20.07,20.07,0,0,0,.55,2.29,2.12,2.12,0,0,1-.59,2.15c-.81.6-1.94.13-2.83-.34a3.28,3.28,0,0,1-1.76-1.61,17.3,17.3,0,0,1-.19-1.78c-.25-1.15-1.39-1.84-2.32-2.57s-1.8-1.94-1.28-3c.35-.7,1.19-1,1.57-1.71.93-1.66-1.37-3.52-.62-5,.9-1.77,3.73-1.28,5.34-.65a14.41,14.41,0,0,1,4.2,3.21C144.26,201.58,143.11,201.15,140.14,203.92Z" style="fill:#00DAAA;isolation:isolate"></path><path d="M128.29,155.13c16.1-18,40.35-29.32,64.05-32.52l2-.25c3.58,3.13,6.09,9.61.05,11.65.08.67.49.79.9,1.29.65.78-.11,2-1,2.47-2.89,1.64-6.59,2-5.58,6.11,1.2,4.84,3.13,1.42,5.91,2.87a5.4,5.4,0,0,1,1,.91c1.25,1.11,3.15.85,4.79.53a1.9,1.9,0,0,1,.94-2.63,2.94,2.94,0,0,0,1.1-.43c.63-.59,0-1.7-.87-1.93a24.32,24.32,0,0,0-2.57-.1c-.85-.14-1.72-1-1.31-1.77a1.55,1.55,0,0,1,.85-.62,4.69,4.69,0,0,1,4.29.62,1.88,1.88,0,0,1,3.66-.1c.32,1.17-.3,2.91.85,3.34a2.72,2.72,0,0,0-2.57,1.18c-2.13,3.28.28,10.29-6.49,9.93a25.5,25.5,0,0,0-3.25-.3,2.5,2.5,0,0,0-2.41,1.82c-1.64-1.84-5.16-1-6.61-2.95a2.63,2.63,0,0,1,.17-3.22,1.23,1.23,0,0,0,.33-.46c.1-.39-.27-.72-.38-1.1-.17-.66.49-1.27.49-2,0-.95-1.16-1.41-2.11-1.53s-2.1-.31-2.41-1.22c-.1-.31-.08-.65-.18-.95a1.61,1.61,0,0,0-1.57-1,4.82,4.82,0,0,0-1.88.53c-.38.42-.1,1.11.33,1.47a9.76,9.76,0,0,1,1.37,1c.21.23.06,5.95.47,5.75-1.92.95-6.19,1.6-5,4.49.44,1,1.2,2,.94,3.12,1.36-.58,2.73-1.14,4.1-1.68.4.41-.08,1.1-.62,1.31s-1.2.28-1.52.76a1.79,1.79,0,0,0-.18,1.17l.28,3.94c.11,1.43.12,3.07-.95,4s-3.19.59-4.46-.42a1,1,0,0,0-1.85.13,5.94,5.94,0,0,1-4.9,2.19,3.85,3.85,0,0,1-3.49-3.67c0-.71.22-1.61-.38-2-.35-.23-.9-.19-1.09-.56s.34-.91.72-1.28a2.12,2.12,0,0,0,.29-2.62c-.27-.41-4.39-1.51-5-1.14-1.31.86-.58,4.56-.57,6a2.12,2.12,0,0,1-.43,1.59c-.64.62-1.72.2-2.35-.41s-1.14-1.44-2-1.72a3.69,3.69,0,0,0-1.52-.06,3.87,3.87,0,0,0-2.83,1.09c-.29.38-.43.87-.73,1.26a3,3,0,0,1-3.05.76c-1.08-.23-2.1-.76-3.2-.9-2.34-.32-4.79,1.08-7,.27-1.08-.39-2-1.73-1.29-2.64s2.11-.85,2.17-1.83-2.37-2-2.87-2.74c-.39-.59.14-1.87-.73-2.95C130.53,156.19,129.06,156.08,128.29,155.13Z" style="fill:#00DAAA;isolation:isolate"></path><path d="M281,293.18c1.17-1,2.55-1.71,2.78-3.54.3-2.49-1.13-3.35-3.41-2.15a1.06,1.06,0,0,1-.65.18c-.73-.13-.37-1.22,0-1.84a4.92,4.92,0,0,0,0-4.75c-.18-.35,6.55-1.37,7.35-1.05,2.78,1.09,1.79,6.85,4.69,5.53-.06-2.13-.45-4.3-.72-6.44l3.07-.51c-.77.13-.81-3.86-.61-4.33.8-1.8,4-1.49,3.34-4.61-.86-3.95-8.7-3.77-7.19.69a20.24,20.24,0,0,1-7.5,2l.15,2.46a2.18,2.18,0,0,1-2,.4,6.15,6.15,0,0,1-.42-6.79c-1.05-1.24-.2-3.12.68-4.5-3.1-1.71-3-7.08.22-8.62s7.49,1.67,6.92,5.16a7.94,7.94,0,0,1,4.64,1.44,10.33,10.33,0,0,1,6.31-10.2c2-.79,4.47-1.08,5.67-2.87.54-.79.73-1.77,1.22-2.6,1.11-1.84,3.44-2.49,5.56-2.88,1.42-.26,2.85-.46,4.28-.63a109.17,109.17,0,0,1-32.59,66.45,4.32,4.32,0,0,1-2.23,0c-1.3-.5-1.87-2-2.29-3.31-1.65-5.16-1.52-8.52,2.36-12.35Z" style="fill:#00DAAA;isolation:isolate"></path><g style="isolation:isolate;opacity:0.1"><path d="M98.18,240c.16,1.78.35,3.58.6,5.37a109.12,109.12,0,1,0,216.29-29.16c-.51-3.74-1.18-7.39-2-11A109.25,109.25,0,0,0,233.86,125h0c-1.38-.34-2.76-.67-4.15-1A99.33,99.33,0,1,1,98.18,240Z"></path></g><g style="isolation:isolate;opacity:0.30000000000000004"><path d="M184.55,313.75c-2,.46-2.6,3.07-2.75,5.16q-.35,4.71-.68,9.41c3.94,1.27,4.21,5.86,2.87,9.16a109.18,109.18,0,0,1-85.22-92.14q-.72-5.39-.91-10.7a2.48,2.48,0,0,1,.26-.19c2.77-1.77,5.42.46,7.82,1.6.55.25,7.44,2.58,7.41,1.69a29.11,29.11,0,0,0,1.53,8.43.84.84,0,0,0,.36.53c.46.24.86-.41,1-.92.24-1.29.24-2.63.55-3.91a4.45,4.45,0,0,1,2.22-3.12c1.2-.56,2.63-.27,3.91-.61a5.47,5.47,0,0,0,3.36-3.27,18.27,18.27,0,0,0,1-4.56c2,3.2,5.57.61,8.2,3.06.85.79,1.89,1.95,2.9,1.38s.85-2.27,1.92-2.54c.74-.2,1.4.57,1.61,1.31a8.11,8.11,0,0,0,.6,2.21,2,2,0,0,0,2.82.49c.76-.6.95-1.66,1.37-2.54s1.42-1.7,2.27-1.23a1.47,1.47,0,0,1,.49.47c.94,1.35.31,3.21-.53,4.63S146.93,240.4,147,242a1.36,1.36,0,0,0,1.82-.64,2.22,2.22,0,0,1,.31-.68c.37-.4,1-.15,1.52.09a9.84,9.84,0,0,0,7.53.36c-.24-3.32-.47-6.64-.71-10,.75-.12,1.19-.22,1.37-1,2.79,2.09,5.39,4.4,8.39,6.22a2,2,0,0,1,.91.85,6.16,6.16,0,0,1,.13,1.3c.27,1.43,2.25,1.56,3.69,1.34.45.18.3.9-.09,1.18s-.91.38-1.25.72a1.86,1.86,0,0,0-.12,2,4.79,4.79,0,0,0,6.35,2.21,1.43,1.43,0,0,0,.66-.58c.3-.58-.14-1.25-.29-1.89-.59-2.52,2.24-2.28,3.61-1.74,1.84.74,3.13,3.16,3.69,4.94.65,2.07,4,16,8.51,13.42a2.11,2.11,0,0,0,.85-1.13c.52-1.36.28-2.9.6-4.33s1.72-2.86,3.07-2.32c.55.22.94.71,1.46,1,1.47.72,3.26-.6,4.82-.11a13.49,13.49,0,0,1,1.93,1.13c.67.35,1.65.36,2-.3s-.3-1.69,0-2.48a1.32,1.32,0,0,1,2.18-.13,2.28,2.28,0,0,1-.06,2.49,3.11,3.11,0,0,0-.6,1.24c-.07.82.78,1.39,1.51,1.77l3.51,1.82a2,2,0,0,1-1.33,1.66c-.69.29-1.46.38-2.14.71-3.29,1.58-2.63,6.68-7.26,6.25a2.2,2.2,0,0,0-2.83-2.08c-1.6.62-2.36,3.11-4.06,2.85-.59-.09-1.09-.53-1.68-.59-1.64-.17-2.11,2.37-2.42,3.47-1,3.64,1.32,3.76,1.62,6.85.14,1.42-.76,2.74-.84,4.16s.54,2.57.53,3.88c0,3.59-5,2.05-7.1,1.9,1.38,1.86,0,4.51-1.63,6.14-2.54,2.49-2.08,2.24-2,5.37a2.28,2.28,0,0,1-1.08,2.08c-1.28.65-2.76-.52-4.2-.47-.69,0-1.35.32-2,.29-1.8-.07-2.7-2.16-4-3.39a5,5,0,0,0-4.41-1.16,10.21,10.21,0,0,0,.34,2.75l3.21,1.45a6.84,6.84,0,0,1,2.58,1.7,5.48,5.48,0,0,0,1.11,1.32c1,.64,2.23,0,3.36-.2,2.76-.54,7.5.62,10.28,1.16,3,.57,4.23,2.46,7,3a.84.84,0,0,1,.45,1.19,1.85,1.85,0,0,1-1.17.84,5.12,5.12,0,0,1-3.37-.12c1.4.55-2,4.19-2.7,4.43-1.1.4-2.73-.26-3.89-.17-2.88.22-4.47,1-2.19,3.87.87,1.1,1.9,2.51,1.26,3.75a1.83,1.83,0,0,0-2,1.11,3.91,3.91,0,0,0-.06,2.44,2.46,2.46,0,0,0,.79,1.43,4.8,4.8,0,0,1,.74.5c.63.74-.35,1.75-1.2,2.21" style="fill:#fff;isolation:isolate"></path><path d="M311.67,200.08A110.08,110.08,0,0,0,233.86,125a24.46,24.46,0,0,1-2.44,4.88c-2,2.84-5.84,5.48-5,9.42.12.52,6,8.51,3.88,8.83a5.76,5.76,0,0,0-3.59,1.45c-.28.32-.49.71-.8,1-1,.93-2.53.67-3.88.74s-3,1.14-2.52,2.4c.35.92,1.72,1.58,1.31,2.47-.18.37-.61.55-.82.89-.47.74.31,1.7.16,2.56-.22,1.2-1.93,1.32-3.08.89s-2.44-1.1-3.49-.48c-.05,1.11.12,2.54,1.19,2.81a4.42,4.42,0,0,0,1.09,0c3,0,2.86,3.91,3.28,6a2.44,2.44,0,0,0,.46,1.18c1,1.11,3.05-.3,4.31.52s.51,2.94,1.34,4.21a5,5,0,0,1,4.5-1.86c.53.07,1.19.54.9,1-1,.79-2.59.42-3.63,1.19-2.16,1.62.45,4.24-.64,6-1.67,2.69-5-.3-5.32-2.62a3.11,3.11,0,0,0-.26-1.1c-.57-1-2.13-.64-3.19-.11.66.53.12,1.69-.69,2a7.6,7.6,0,0,1-2.52,0c-.85,0-1.86.41-1.95,1.26a5.55,5.55,0,0,0,.11,1,2.5,2.5,0,0,1-2.28,2.43,5.9,5.9,0,0,1-3.51-.91,2.57,2.57,0,0,1-1.14-1,3.18,3.18,0,0,1,0-2,9.77,9.77,0,0,0,.07-2.7c-.09-.88-.64-2-1.51-1.8s-1,1.13-.9,1.9.17,1.68-.42,2.18a3.84,3.84,0,0,0-4.15,3.51,3.27,3.27,0,0,1-.12,1c-.41,1-2,.9-2.65,1.8a2.6,2.6,0,0,0,.2,2.49c.66,1.49,1,4,1.78,6.1s1.82,3.5,3.92,3.34a6.1,6.1,0,0,0,4.43-3.14c.12.53,3.06,4.69,3.68,5,1.29.55,3.72-1.84,4.75.69.2.48.21,1,.37,1.5a2.2,2.2,0,0,0,1.61,1.5,1.63,1.63,0,0,0,1.82-1.08c.09-.35,0-.72.11-1.07.4-2,4.57-2.24,5.92-3.09.88-.56,1.58-1.35,2.4-2a1.38,1.38,0,0,1,.66-.33c.84-.12,1.22,1,1.28,1.87a2.47,2.47,0,0,0,3.16-2.81c1.87-.24,3.86-.9,5.65-.49-.79-1.31-.63-2.77-.72-4.27a2.08,2.08,0,0,1,2.93-2c1.28.62,1.07,2,1.45,3.09.9,2.64.42,2.21-.23,4.86-1.26,5.12,3.34,10.83,8.77,7.24,1.55-1,2.6-2.75,4.31-3.49,1-.43,2.16-.53,2.87-1.32a4.13,4.13,0,0,0,.65-3.09c-.19-3-.49-6.32-2.6-8.49a16,16,0,0,1-1.58-1.92l-.45-.25a2,2,0,0,1-.69-.82,2.1,2.1,0,0,1-.19-1.08c0-.11.05-.2.07-.31-.21-1.6-.05-3.35-.53-4.91.81.23,1.63.42,2.45.6a3.47,3.47,0,0,1,.55-.16c-.1-.92-1.86-1.57-1.3-2.37l2.47-.43a.93.93,0,0,1,.72.07.89.89,0,0,1,.28.65c.09.61.18,1.21.26,1.81a2.24,2.24,0,0,1,1.18,1.13c.4.06.81.1,1.22.14l.22,0,.62-.52a5.77,5.77,0,0,1,1.19-.8,7.87,7.87,0,0,1,1.39-1,11.54,11.54,0,0,1,1.55-5.76,2.14,2.14,0,0,1,1.11-1.09,2.51,2.51,0,0,1,1.47.18l3.44,1.21c1.05.37,2.23.85,2.65,1.89a4,4,0,0,1-.23,2.79c-.74,2.17-1.47,4.36-2.2,6.55a7.5,7.5,0,0,0-.59,3.29c.37,2.91,3.76,4.34,5.26,6.86-2.08,1.15-4.5,3-4,5.32.42,1.93,2.62,2.82,3.89,4.33,1,1.22.42,2.77,1.61,3.88.69.66,1.59,1.13,2.06,2s.17,2.19-.78,2.26a33.25,33.25,0,0,1,6,1.46c2.33.89,4.79,2.34,7.15,1.53a6.7,6.7,0,0,0,2.79-2.19c.65-.79,1.65-1.72,2.52-1.2-.12.5.38.93.86,1.1a3.27,3.27,0,0,1,1.38.61c.62.67.55,2.21,1.46,2.1,3.49-1.86.58-6.3,3.52-8.61,2.32-1.82,6.4-.47,9-.08A35.24,35.24,0,0,0,311.67,200.08Z" style="fill:#fff;isolation:isolate"></path><path d="M140.14,203.92a4.33,4.33,0,0,0-1.51,3.37,20.07,20.07,0,0,0,.55,2.29,2.12,2.12,0,0,1-.59,2.15c-.81.6-1.94.13-2.83-.34a3.28,3.28,0,0,1-1.76-1.61,17.3,17.3,0,0,1-.19-1.78c-.25-1.15-1.39-1.84-2.32-2.57s-1.8-1.94-1.28-3c.35-.7,1.19-1,1.57-1.71.93-1.66-1.37-3.52-.62-5,.9-1.77,3.73-1.28,5.34-.65a14.41,14.41,0,0,1,4.2,3.21C144.26,201.58,143.11,201.15,140.14,203.92Z" style="fill:#fff;isolation:isolate"></path><path d="M128.29,155.13c16.1-18,40.35-29.32,64.05-32.52l2-.25c3.58,3.13,6.09,9.61.05,11.65.08.67.49.79.9,1.29.65.78-.11,2-1,2.47-2.89,1.64-6.59,2-5.58,6.11,1.2,4.84,3.13,1.42,5.91,2.87a5.4,5.4,0,0,1,1,.91c1.25,1.11,3.15.85,4.79.53a1.9,1.9,0,0,1,.94-2.63,2.94,2.94,0,0,0,1.1-.43c.63-.59,0-1.7-.87-1.93a24.32,24.32,0,0,0-2.57-.1c-.85-.14-1.72-1-1.31-1.77a1.55,1.55,0,0,1,.85-.62,4.69,4.69,0,0,1,4.29.62,1.88,1.88,0,0,1,3.66-.1c.32,1.17-.3,2.91.85,3.34a2.72,2.72,0,0,0-2.57,1.18c-2.13,3.28.28,10.29-6.49,9.93a25.5,25.5,0,0,0-3.25-.3,2.5,2.5,0,0,0-2.41,1.82c-1.64-1.84-5.16-1-6.61-2.95a2.63,2.63,0,0,1,.17-3.22,1.23,1.23,0,0,0,.33-.46c.1-.39-.27-.72-.38-1.1-.17-.66.49-1.27.49-2,0-.95-1.16-1.41-2.11-1.53s-2.1-.31-2.41-1.22c-.1-.31-.08-.65-.18-.95a1.61,1.61,0,0,0-1.57-1,4.82,4.82,0,0,0-1.88.53c-.38.42-.1,1.11.33,1.47a9.76,9.76,0,0,1,1.37,1c.21.23.06,5.95.47,5.75-1.92.95-6.19,1.6-5,4.49.44,1,1.2,2,.94,3.12,1.36-.58,2.73-1.14,4.1-1.68.4.41-.08,1.1-.62,1.31s-1.2.28-1.52.76a1.79,1.79,0,0,0-.18,1.17l.28,3.94c.11,1.43.12,3.07-.95,4s-3.19.59-4.46-.42a1,1,0,0,0-1.85.13,5.94,5.94,0,0,1-4.9,2.19,3.85,3.85,0,0,1-3.49-3.67c0-.71.22-1.61-.38-2-.35-.23-.9-.19-1.09-.56s.34-.91.72-1.28a2.12,2.12,0,0,0,.29-2.62c-.27-.41-4.39-1.51-5-1.14-1.31.86-.58,4.56-.57,6a2.12,2.12,0,0,1-.43,1.59c-.64.62-1.72.2-2.35-.41s-1.14-1.44-2-1.72a3.69,3.69,0,0,0-1.52-.06,3.87,3.87,0,0,0-2.83,1.09c-.29.38-.43.87-.73,1.26a3,3,0,0,1-3.05.76c-1.08-.23-2.1-.76-3.2-.9-2.34-.32-4.79,1.08-7,.27-1.08-.39-2-1.73-1.29-2.64s2.11-.85,2.17-1.83-2.37-2-2.87-2.74c-.39-.59.14-1.87-.73-2.95C130.53,156.19,129.06,156.08,128.29,155.13Z" style="fill:#fff;isolation:isolate"></path><path d="M281,293.18c1.17-1,2.55-1.71,2.78-3.54.3-2.49-1.13-3.35-3.41-2.15a1.06,1.06,0,0,1-.65.18c-.73-.13-.37-1.22,0-1.84a4.92,4.92,0,0,0,0-4.75c-.18-.35,6.55-1.37,7.35-1.05,2.78,1.09,1.79,6.85,4.69,5.53-.06-2.13-.45-4.3-.72-6.44l3.07-.51c-.77.13-.81-3.86-.61-4.33.8-1.8,4-1.49,3.34-4.61-.86-3.95-8.7-3.77-7.19.69a20.24,20.24,0,0,1-7.5,2l.15,2.46a2.18,2.18,0,0,1-2,.4,6.15,6.15,0,0,1-.42-6.79c-1.05-1.24-.2-3.12.68-4.5-3.1-1.71-3-7.08.22-8.62s7.49,1.67,6.92,5.16a7.94,7.94,0,0,1,4.64,1.44,10.33,10.33,0,0,1,6.31-10.2c2-.79,4.47-1.08,5.67-2.87.54-.79.73-1.77,1.22-2.6,1.11-1.84,3.44-2.49,5.56-2.88,1.42-.26,2.85-.46,4.28-.63a109.17,109.17,0,0,1-32.59,66.45,4.32,4.32,0,0,1-2.23,0c-1.3-.5-1.87-2-2.29-3.31-1.65-5.16-1.52-8.52,2.36-12.35Z" style="fill:#fff;isolation:isolate"></path></g><path d="M234.62,194.24a2.83,2.83,0,0,0-2.78.49A21.8,21.8,0,0,1,213,200a2.69,2.69,0,1,0-1.49,5.17h0a26.84,26.84,0,0,0,23.83-6.33,2.7,2.7,0,0,0,.38-3.79l0-.05A4.32,4.32,0,0,0,234.62,194.24Z" style="fill:#263238"></path><path d="M268.87,195.63a2.63,2.63,0,0,0-1.59-.14,2.7,2.7,0,0,0-1.35,3.56l0,0a26.83,26.83,0,0,0,19.26,15.51,2.69,2.69,0,0,0,3-2.29h0a2.76,2.76,0,0,0-2.3-3h0a21.77,21.77,0,0,1-15.05-12.52A2.78,2.78,0,0,0,268.87,195.63Z" style="fill:#263238"></path><g style="opacity:0.30000000000000004"><path d="M208.19,247a36.76,36.76,0,0,1-5.31.34,1.35,1.35,0,0,1-1.34-1.36,1.4,1.4,0,0,1,1.36-1.34c17.47.15,21.44-11.71,21.6-12.22a1.35,1.35,0,1,1,2.58.8C227,233.3,223.34,244.81,208.19,247Z"></path></g><g style="opacity:0.30000000000000004"><path d="M274.07,257.41a1.36,1.36,0,0,1-.53,0c-9.48-2.47-12.1-15.95-12.21-16.52a1.35,1.35,0,0,1,1.08-1.58,1.38,1.38,0,0,1,1.58,1.08c0,.12,2.41,12.37,10.23,14.4a1.35,1.35,0,0,1-.15,2.64Z"></path></g><path d="M213.11,228.35c-1.11,4.45.92,8.62,3.94,9.15s6-2.77,6.83-7.28-1-8.65-3.93-9.16S214,223.77,213.11,228.35Z" style="fill:#263238"></path><path d="M264.43,237.41c-1.11,4.45,1,8.64,3.94,9.15s6-2.77,6.84-7.28-1-8.64-3.94-9.15S265.2,233.11,264.43,237.41Z" style="fill:#263238"></path><path d="M208.31,227.91s13.21,2.11,19.29-1.25-3.52-8.75-8.53-9.43S205.47,223.48,208.31,227.91Z" style="fill:#00DAAA"></path><path d="M262.26,234.24s11.85,6.2,18.68,4.95-.54-9.41-5.08-11.65S261,229.14,262.26,234.24Z" style="fill:#00DAAA"></path><path d="M257.75,276.83s-6.36,1.94-14.47,3.79c-14.57,3.37-34.94,6.41-35.34-2.2a8.38,8.38,0,0,1,2.34-6.38c6.75-7.67,27-8.83,40.38-9,0,0,.24,4.94,1.28,6.72C255,275.38,257.75,276.83,257.75,276.83Z" style="fill:#263238"></path><path d="M243.28,280.62c-14.57,3.37-34.94,6.41-35.34-2.2a8.38,8.38,0,0,1,2.34-6.38C222.2,272.29,238.28,273.91,243.28,280.62Z" style="fill:#a02724"></path><path d="M174.28,229.44s10.07,18.65-1.36,17.78S174.28,229.44,174.28,229.44Z" style="fill:#fff"></path><path d="M195.08,205.91s10.07,18.66-1.36,17.78S195.08,205.91,195.08,205.91Z" style="fill:#fff"></path><path d="M165.26,195.43s10.07,18.65-1.36,17.78S165.26,195.43,165.26,195.43Z" style="fill:#fff"></path><path d="M208.31,227.91s13.21,2.11,19.29-1.25-3.52-8.75-8.53-9.43S205.47,223.48,208.31,227.91Z" style="fill:#fff;isolation:isolate;opacity:0.4"></path><path d="M262.26,234.24s11.85,6.2,18.68,4.95-.54-9.41-5.08-11.65S261,229.14,262.26,234.24Z" style="fill:#fff;isolation:isolate;opacity:0.4"></path><g style="opacity:0.5"><path d="M125.08,278.73l10.3,1.85.27.05.23-.16,2.69-1.83,2.9-.61-3.2-.68-.16,0-.22.15-2.55,1.73-9.68-1.73V263.24l4.76-7.31h6.33l.2-.18,6.37-5.94,3.17-1.46-3.75.26h-.13l-.16.15-6.23,5.8h-5.55l-.61-6.22L129.4,255l-5,7.66-.11.17V277.6l-6,3-4.84-8.86-.09-.16-.16-.1-4.28-2.53-.64-6.61-.68,7,0,.37.37.22,4.42,2.6,4.93,9-2.23,8.1c.33.51.66,1,1,1.51l2.53-9.22Z"></path><path d="M160.81,322.83l.12.05h5.78l2.48,1-2-2.22-.11-.13h-5.89l-9-3.6v-4.41l10.14-.91.32,0,.18-.27,1.43-2.13,9.61,1.46.21,0,.12-.07,4.08-2.17-4.3.85L164,308.77l-.42-.07-.24.36-1.5,2.22-10.05.89-3.22-4.29v-4.42l0-.08-2.06-3.15.75,3.44v4.66l.14.18,3.44,4.6v4.78l-6.61,2.16,1.4,1,5.87-1.92Z"></path><path d="M245.77,136.8l7.95,5.59,1.66,6.38-8.31,5.1-7.63-1.45-.28,0-.15.11-2.67,2.1,3-.8,7.34,1.39,1.22,4.89-7.18,5.68-.32.25.06.28.68,3.11.59-2.71,7.36-5.82.34-.27-.11-.43L248,154.9l8-4.88,4.73,7.79.65,5.73.68-6,0-.16-.12-.19-5.1-8.4-1.64-6.34,12-2.74c-.53-.35-1.06-.68-1.6-1l-11.13,2.54Z"></path><path d="M292.14,180.35h-5l-.12.09-3.34,2.82,3.81-1.56h4.33l2.35,7.78-6.38,5.43-.3.25.06.27.68,3.31.6-2.93,5.95-5.07,2.22,3.68-.1-.35.68,1.71.68-1.71.05-.11-.15-.24-2.58-4.29-2.47-8.14,4.87-3.58.3-.22,0-.37-.41-6.68-1.49-2.19.52,8.59Z"></path><path d="M277,156.32l3.43.59,1.9,4.5L280.89,165l2.73-3.24.21-.24-.16-.37-2-4.76,1.94-3.26-1-1-2.13,3.58Z"></path><path d="M158.35,146l-7.07,2.44-.51.17,0,.47.68,5.49.62-5,7.13-2.45.46-.16v-6.91h4.84l4.64,3.4-4-4.58-.16-.18h-5.72l-3.57-4.36c-.41.21-.82.44-1.22.66l3.79,4.62Z"></path><path d="M305.27,263.82l3.35-6.78.14-.28-.13-.3L307,252.85l1-4.5-2.37,4.34-.12.22.14.3,1.6,3.52-2.92,5.92-3.74-3.42,3.32,4.8,1.76,6.22.08.26.23.14,2,1.23.52-1.27-1.62-1Z"></path><path d="M294.75,289.83l-.12.08-4.31,2.75-5.13.64,4.34.55L287.46,298l-2.27,2.27,3.23-1.34.12-.05.11-.21,2.44-4.85,4.14-2.64,2.84-.38c.33-.49.66-1,1-1.5l-4.15.55Z"></path><path d="M186.88,131.81l-2.13,4.71-.21.48.33.25,2.83,2.14-1.57-2.62,2.19-4.84.2-.45-.36-.33-3.95-3.65,3.49-1.82-4.62,1-4.6-1.26c-.84.23-1.66.48-2.49.73l6.72,1.84Z"></path></g></g><g id="freepik--Smoke--inject-18"><path d="M204.08,60.4a9.76,9.76,0,0,0-15.46,5.13,6.68,6.68,0,0,0-1.83-2.29,6.55,6.55,0,1,0-8.13,10.28,1.7,1.7,0,0,1,.14.1,10,10,0,0,0-1.23,1.28,9.77,9.77,0,0,0,10.84,15.31,9,9,0,0,0,15,1.34,8.89,8.89,0,0,0,1.9-6.11,9,9,0,0,0,4-15.88,8.64,8.64,0,0,0-1.5-1A9.77,9.77,0,0,0,204.08,60.4Z" style="fill:#263238"></path><path d="M337.49,141.89a5.84,5.84,0,0,0-4-7.2,5.71,5.71,0,0,0-2.35-.16A3.85,3.85,0,0,0,332,133a3.92,3.92,0,1,0-7.54-2.13s0,.06,0,.1a5.76,5.76,0,0,0-1-.39,5.85,5.85,0,0,0-6,9.5,5.37,5.37,0,0,0,6.51,8.23,5.37,5.37,0,0,0,9.69-1.44,4.81,4.81,0,0,0,.18-1.05A5.85,5.85,0,0,0,337.49,141.89Z" style="fill:#263238"></path><path d="M204.08,60.4a9.76,9.76,0,0,0-15.46,5.13,6.68,6.68,0,0,0-1.83-2.29,6.55,6.55,0,1,0-8.13,10.28,1.7,1.7,0,0,1,.14.1,10,10,0,0,0-1.23,1.28,9.77,9.77,0,0,0,10.84,15.31,9,9,0,0,0,15,1.34,8.89,8.89,0,0,0,1.9-6.11,9,9,0,0,0,4-15.88,8.64,8.64,0,0,0-1.5-1A9.77,9.77,0,0,0,204.08,60.4Z" style="fill:#fff;isolation:isolate;opacity:0.7000000000000001"></path><path d="M337.49,141.89a5.84,5.84,0,0,0-4-7.2,5.71,5.71,0,0,0-2.35-.16A3.85,3.85,0,0,0,332,133a3.92,3.92,0,1,0-7.54-2.13s0,.06,0,.1a5.76,5.76,0,0,0-1-.39,5.85,5.85,0,0,0-6,9.5,5.37,5.37,0,0,0,6.51,8.23,5.37,5.37,0,0,0,9.69-1.44,4.81,4.81,0,0,0,.18-1.05A5.85,5.85,0,0,0,337.49,141.89Z" style="fill:#fff;isolation:isolate;opacity:0.7000000000000001"></path><path d="M276.24,355.59a7.16,7.16,0,0,0-4.95-8.84,7,7,0,0,0-2.9-.21,4.74,4.74,0,0,0,1.05-1.89,4.82,4.82,0,1,0-9.27-2.62.53.53,0,0,0,0,.12,7.18,7.18,0,0,0-8.56,11.2,6.74,6.74,0,0,0-1.25,2.39,6.59,6.59,0,0,0,9.25,7.72,6.59,6.59,0,0,0,12.13-3.06A7.18,7.18,0,0,0,276.24,355.59Z" style="fill:#263238"></path><path d="M276.24,355.59a7.16,7.16,0,0,0-4.95-8.84,7,7,0,0,0-2.9-.21,4.74,4.74,0,0,0,1.05-1.89,4.82,4.82,0,1,0-9.27-2.62.53.53,0,0,0,0,.12,7.18,7.18,0,0,0-8.56,11.2,6.74,6.74,0,0,0-1.25,2.39,6.59,6.59,0,0,0,9.25,7.72,6.59,6.59,0,0,0,12.13-3.06A7.18,7.18,0,0,0,276.24,355.59Z" style="fill:#fff;isolation:isolate;opacity:0.7000000000000001"></path><path d="M261.83,109.87c-3.11,2.78-10.15-3.21-8.54-6.73s5.8-2.46,5.8-2.46-1.64-5.34,3.55-4,3.8,4.72,3.8,4.72,6.61,1.06,6.07,3.16-3.21.92-3.21.92,2.83,3.09-.73,5.22S261.83,109.87,261.83,109.87Z" style="fill:#263238"></path><path d="M261.83,109.87c-3.11,2.78-10.15-3.21-8.54-6.73s5.8-2.46,5.8-2.46-1.64-5.34,3.55-4,3.8,4.72,3.8,4.72,6.61,1.06,6.07,3.16-3.21.92-3.21.92,2.83,3.09-.73,5.22S261.83,109.87,261.83,109.87Z" style="fill:#fff;opacity:0.7000000000000001"></path><path d="M302.22,138.91c-1.63.06-2.24-3.51-.88-4.16a2,2,0,0,1,2.36.72s.85-2,2.06-.3,0,2.37,0,2.37,1.72,2,1,2.47-1.19-.53-1.19-.53.07,1.64-1.53,1.38A2.27,2.27,0,0,1,302.22,138.91Z" style="fill:#263238"></path><path d="M302.22,138.91c-1.63.06-2.24-3.51-.88-4.16a2,2,0,0,1,2.36.72s.85-2,2.06-.3,0,2.37,0,2.37,1.72,2,1,2.47-1.19-.53-1.19-.53.07,1.64-1.53,1.38A2.27,2.27,0,0,1,302.22,138.91Z" style="fill:#fff;opacity:0.7000000000000001"></path><path d="M229.2,120.51c-1.2,1.1-4-1.21-3.38-2.6a2,2,0,0,1,2.26-1s-.66-2.09,1.38-1.57,1.5,1.83,1.5,1.83,2.59.38,2.4,1.2-1.26.38-1.26.38a1.26,1.26,0,0,1-.26,2A2.28,2.28,0,0,1,229.2,120.51Z" style="fill:#263238"></path><path d="M229.2,120.51c-1.2,1.1-4-1.21-3.38-2.6a2,2,0,0,1,2.26-1s-.66-2.09,1.38-1.57,1.5,1.83,1.5,1.83,2.59.38,2.4,1.2-1.26.38-1.26.38a1.26,1.26,0,0,1-.26,2A2.28,2.28,0,0,1,229.2,120.51Z" style="fill:#fff;opacity:0.7000000000000001"></path><path d="M95.77,93.41c-2-3.66,5.46-9.14,8.51-6.77s1.06,6.21,1.06,6.21,5.58-.36,3,4.37-5.47,2.62-5.47,2.62S100.37,106,98.45,105s-.16-3.33-.16-3.33-3.66,2-4.91-1.91S95.77,93.41,95.77,93.41Z" style="fill:#263238"></path><path d="M95.77,93.41c-2-3.66,5.46-9.14,8.51-6.77s1.06,6.21,1.06,6.21,5.58-.36,3,4.37-5.47,2.62-5.47,2.62S100.37,106,98.45,105s-.16-3.33-.16-3.33-3.66,2-4.91-1.91S95.77,93.41,95.77,93.41Z" style="fill:#fff;opacity:0.7000000000000001"></path><path d="M75.5,302.74c2.61,1.26.63,7.4-2.06,7.3S70.31,307,70.31,307s-3,2.48-3.5-1.23,2-3.7,2-3.7-1.07-4.54.42-4.75,1.44,1.82,1.44,1.82,1.24-2.64,3.56-.92A4.07,4.07,0,0,1,75.5,302.74Z" style="fill:#263238"></path><path d="M75.5,302.74c2.61,1.26.63,7.4-2.06,7.3S70.31,307,70.31,307s-3,2.48-3.5-1.23,2-3.7,2-3.7-1.07-4.54.42-4.75,1.44,1.82,1.44,1.82,1.24-2.64,3.56-.92A4.07,4.07,0,0,1,75.5,302.74Z" style="fill:#fff;opacity:0.7000000000000001"></path><path d="M70.32,266.72c1.41.31,1.16,3.52-.17,3.78a1.77,1.77,0,0,1-1.87-1.14s-1.18,1.55-1.85-.19.56-2,.56-2-1-2.08-.34-2.36.91.72.91.72a1.13,1.13,0,0,1,1.63-.86A2.06,2.06,0,0,1,70.32,266.72Z" style="fill:#263238"></path><path d="M70.32,266.72c1.41.31,1.16,3.52-.17,3.78a1.77,1.77,0,0,1-1.87-1.14s-1.18,1.55-1.85-.19.56-2,.56-2-1-2.08-.34-2.36.91.72.91.72a1.13,1.13,0,0,1,1.63-.86A2.06,2.06,0,0,1,70.32,266.72Z" style="fill:#fff;opacity:0.7000000000000001"></path><path d="M66.88,240.56c3.57,2.15-.08,10.65-3.91,10.15s-4-4.83-4-4.83-4.63,3.14-4.84-2.22,3.39-5,3.39-5-.93-6.63,1.23-6.74,1.83,2.8,1.83,2.8,2.12-3.61,5.2-.83S66.88,240.56,66.88,240.56Z" style="fill:#263238"></path><path d="M66.88,240.56c3.57,2.15-.08,10.65-3.91,10.15s-4-4.83-4-4.83-4.63,3.14-4.84-2.22,3.39-5,3.39-5-.93-6.63,1.23-6.74,1.83,2.8,1.83,2.8,2.12-3.61,5.2-.83S66.88,240.56,66.88,240.56Z" style="fill:#fff;opacity:0.7000000000000001"></path><path d="M41.79,294a6.78,6.78,0,0,0,9.57.66A6.7,6.7,0,0,0,53,292.51a4.56,4.56,0,1,0,7.84-4.18l-.09-.08a7.75,7.75,0,0,0,1-.72,6.8,6.8,0,0,0-5.44-11.86,6.25,6.25,0,0,0-10.06-2.84,6.17,6.17,0,0,0-2.09,3.94A6.19,6.19,0,0,0,40,278.29a6.26,6.26,0,0,0-.61,8.82,6.08,6.08,0,0,0,.91.85A6.77,6.77,0,0,0,41.79,294Z" style="fill:#263238"></path><path d="M41.79,294a6.78,6.78,0,0,0,9.57.66A6.7,6.7,0,0,0,53,292.51a4.56,4.56,0,1,0,7.84-4.18l-.09-.08a7.75,7.75,0,0,0,1-.72,6.8,6.8,0,0,0-5.44-11.86,6.25,6.25,0,0,0-10.06-2.84,6.17,6.17,0,0,0-2.09,3.94A6.19,6.19,0,0,0,40,278.29a6.26,6.26,0,0,0-.61,8.82,6.08,6.08,0,0,0,.91.85A6.77,6.77,0,0,0,41.79,294Z" style="fill:#fff;isolation:isolate;opacity:0.7000000000000001"></path></g><g id="freepik--Thermometer--inject-18"><path d="M395.9,199.29V100.23a15.6,15.6,0,0,0-31.19,0v99.06a30.8,30.8,0,1,0,31.19,0Z" style="fill:#263238"></path><path d="M395.9,199.29V100.23a15.6,15.6,0,0,0-31.19,0v99.06a30.8,30.8,0,1,0,31.19,0Z" style="fill:#fff;opacity:0.8"></path><path d="M380.3,252.1A26.25,26.25,0,0,1,367,203.2l2.23-1.32V100.23a11.07,11.07,0,0,1,22.13,0V201.88l2.23,1.32a26.25,26.25,0,0,1-13.3,48.9Z" style="opacity:0.2"></path><path d="M393.6,203.2l-2.23-1.32v-76H369.24v76L367,203.2a26.27,26.27,0,1,0,26.59,0Z" style="fill:#00DAAA"></path><path d="M360.38,229.84a4,4,0,0,1-4-4,24.06,24.06,0,0,1,11.81-20.63l3.39-2v-103a4,4,0,0,1,8,0V205.51a4,4,0,0,1-2,3.44l-5.36,3.16a16,16,0,0,0-7.87,13.73A4,4,0,0,1,360.38,229.84Z" style="fill:#fff;opacity:0.2"></path></g><g id="freepik--Character--inject-18"><path d="M352.14,323.88c-2.7,5.83-9.61,20-16.5,21.09-7.82.56-8.91-9.5-8.9-15.17a2.21,2.21,0,0,1,4.28-.7,38.18,38.18,0,0,0,3.52,7.81,2.44,2.44,0,0,0,.82.83c.06,0,0-.07-.17-.18a2.19,2.19,0,0,0-1.14-.16c4.24-4.82,7.15-11.43,10.11-17.22a4.4,4.4,0,0,1,8,3.7Z" style="fill:#eabdbd"></path><path d="M349.44,329.42c-.57,1.07-1.16,2.13-1.78,3.2s-1.4,2.3-2.16,3.44a39.65,39.65,0,0,1-9.13-1.61A66.92,66.92,0,0,0,340,328.3c.35-.65.71-1.31,1.06-2A58.76,58.76,0,0,0,349.44,329.42Z" style="isolation:isolate;opacity:0.1"></path><path d="M320.82,303s12.72,1.45,8.49,9.9c0,0-3.65.91-6-1.76C321.61,309.16,320.82,303,320.82,303Z" style="fill:#00DAAA"></path><path d="M343.35,308.67s-11.82-4.93-12.25,4.51c0,0,2.75,2.58,6.09,1.38C339.64,313.69,343.35,308.67,343.35,308.67Z" style="fill:#00DAAA"></path><path d="M335.75,309.81a.38.38,0,0,0-.47-.25,8.51,8.51,0,0,0-5.11,5,13,13,0,0,0-3.93-7.23.37.37,0,0,0-.53.05.37.37,0,0,0,.05.52c5.3,4.37,4.26,15.72,4.25,15.83a.37.37,0,0,0,.33.41h0a.37.37,0,0,0,.37-.33,32.75,32.75,0,0,0-.3-7.83c.19-.65,1.51-4.64,5-5.68A.38.38,0,0,0,335.75,309.81Z" style="fill:#00DAAA"></path><path d="M335.75,309.81a.38.38,0,0,0-.47-.25,8.51,8.51,0,0,0-5.11,5,13,13,0,0,0-3.93-7.23.37.37,0,0,0-.53.05.37.37,0,0,0,.05.52c5.3,4.37,4.26,15.72,4.25,15.83a.37.37,0,0,0,.33.41h0a.37.37,0,0,0,.37-.33,32.75,32.75,0,0,0-.3-7.83c.19-.65,1.51-4.64,5-5.68A.38.38,0,0,0,335.75,309.81Z" style="isolation:isolate;opacity:0.2"></path><path d="M343.78,280c-3.81,4.49-3.19,14.32,3.71,22.27,7.89,9.09,5.7,22.39,5.7,22.39l23.28-9.57s1.64-25.48-8.61-35.88C359.5,270.72,348.14,274.84,343.78,280Z" style="fill:#263238"></path><path d="M347.92,314.16c-2.24,1.51-5.44,7.35-5.44,7.35l8,6.46,3.21-2.4Z" style="fill:#263238"></path><path d="M342.48,321.51l5.13,4.16,2.84,2.31.47-.36,2.74-2.05-3.41-6.78h0l-2.32-4.63c-1.77,1.19-4.15,5.11-5.06,6.69Z" style="fill:#fff;opacity:0.6000000000000001"></path><polygon points="341.57 322.04 347.49 326.49 350.45 328.71 351 327.7 350.92 327.62 347.75 324.96 342.87 320.85 342.48 320.53 341.57 322.04" style="fill:#00DAAA"></polygon><path d="M347.49,326.49l3,2.22.55-1-.08-.08,2.74-2.05-3.41-6.78h0a25,25,0,0,0-2.49,6.17c-.05.25-.1.48-.14.71S347.52,326.22,347.49,326.49Z" style="isolation:isolate;opacity:0.2"></path><path d="M331.09,328.56,326,324.9l-1.24,7.23s4,2,7.25-.49Z" style="fill:#ffc3bd"></path><polygon points="319.84 325.22 319.92 330.75 324.76 332.13 326 324.9 319.84 325.22" style="fill:#ffc3bd"></polygon><polygon points="380.3 404.35 384.2 413.02 392.9 411.76 399.51 410.8 407.66 409.62 403.46 406.06 396.92 405.57 390.63 405.12 380.3 404.35" style="fill:#eec1bb"></polygon><polygon points="390.63 405.12 392.9 411.76 399.51 410.8 396.92 405.57 390.63 405.12" style="isolation:isolate;opacity:0.2"></polygon><path d="M399.78,406.27c-.42.44,5.09,5.38,5.09,5.38s6.49,0,10.33,2.44,4-1.2.54-4.72l-8.56-8.72C404.73,398.14,404.13,401.8,399.78,406.27Z" style="fill:#263238"></path><path d="M408.07,413a1,1,0,0,1,.33.59.73.73,0,0,1-.44.68.8.8,0,0,1-.63.07,3,3,0,0,1-1.29-1.06c.19.65.28,1.3,0,1.59a.68.68,0,0,1-.79.09,1.17,1.17,0,0,1-.69-.67c-.4-1,.39-2.64.43-2.72a.18.18,0,0,1,.05-.07h0l.05,0h.07l.07,0A9.07,9.07,0,0,1,408.07,413Zm-1.36.45a1.75,1.75,0,0,0,.72.51.37.37,0,0,0,.33,0c.26-.15.25-.27.25-.31,0-.45-1.28-1.13-2.37-1.58A8.6,8.6,0,0,0,406.71,413.49Zm-1.6,1a.75.75,0,0,0,.3.18c.1,0,.29.09.36,0,.22-.25-.11-1.41-.58-2.48a3.19,3.19,0,0,0-.24,2A.76.76,0,0,0,405.11,414.45Z" style="fill:#00DAAA"></path><path d="M397.1,412.26s-55.89,3.48-62.23,3.17c-5.22-.26-10.46-2.42-12.27-9.45a8.78,8.78,0,0,1-.27-2.2c0-.24,0-.49,0-.74s.05-.61.1-.93a5.07,5.07,0,0,1,.09-.54c0-.21.09-.43.14-.65s.09-.37.14-.55.13-.48.21-.72.11-.36.18-.54.16-.47.25-.7c.24-.6.5-1.2.79-1.82l.43-.86a46.72,46.72,0,0,1,3.26-5.34c.21-.29.42-.59.64-.88,1.3-1.81,2.76-3.63,4.32-5.44l.6-.7c.85-1,1.72-1.94,2.61-2.89l.82-.87.83-.87c.83-.87,1.68-1.73,2.52-2.56l.78-.78,1-1,.74-.71c.56-.54,1.12-1.06,1.66-1.57l.82-.76c1.08-1,2.14-2,3.15-2.87l1.2-1.07c1.31-1.15,2.53-2.2,3.62-3.11l1-.85c1.15-1,2.1-1.73,2.78-2.28l1.21-1,3-8,1.48-9.52.19-1.28,26.47,1.52c.22.49.45,1,.66,1.5a73.07,73.07,0,0,1,5.63,20.22,15.62,15.62,0,0,1-4.5,13.16,19.83,19.83,0,0,1-1.86,1.69c-.16.14-.33.27-.5.4a25.78,25.78,0,0,1-2.66,1.79l-.55.32-.55.3c-.18.11-.37.2-.56.3-.37.19-.73.37-1.1.54-.8.38-1.6.72-2.38,1l-.45.18c-1.4.53-2.72.95-3.89,1.28l-.44.12-.51.14c-2.17.55-3.61.76-3.61.76l-27.16,15.07,49.22,1.95Z" style="fill:#00DAAA"></path><path d="M397.1,412.26s-55.89,3.48-62.23,3.17c-5.22-.26-10.46-2.42-12.27-9.45a8.78,8.78,0,0,1-.27-2.2c0-.24,0-.49,0-.74s.05-.61.1-.93a5.07,5.07,0,0,1,.09-.54c0-.21.09-.43.14-.65s.09-.37.14-.55.13-.48.21-.72.11-.36.18-.54.16-.47.25-.7c.24-.6.5-1.2.79-1.82l.43-.86a46.72,46.72,0,0,1,3.26-5.34c.21-.29.42-.59.64-.88,1.3-1.81,2.76-3.63,4.32-5.44l.6-.7c.85-1,1.72-1.94,2.61-2.89l.82-.87.83-.87c.83-.87,1.68-1.73,2.52-2.56l.78-.78,1-1,.74-.71c.56-.54,1.12-1.06,1.66-1.57l.82-.76c1.08-1,2.14-2,3.15-2.87l1.2-1.07c1.31-1.15,2.53-2.2,3.62-3.11l1-.85c1.15-1,2.1-1.73,2.78-2.28l1.21-1,3-8c11.21,3.84,14.24,11.76,14.24,11.76l15.69,13.84a19.83,19.83,0,0,1-1.86,1.69c-.16.14-.33.27-.5.4a25.78,25.78,0,0,1-2.66,1.79l-.55.32-.55.3c-.18.11-.37.2-.56.3-.37.19-.73.37-1.1.54-.8.38-1.6.72-2.38,1l-.45.18c-1.4.53-2.72.95-3.89,1.28l-.44.12-.51.14c-2.17.55-3.61.76-3.61.76l-27.16,15.07,49.22,1.95Z" style="isolation:isolate;opacity:0.2"></path><polygon points="331.46 389.62 332.81 392.36 338.37 403.64 342.88 412.8 347.17 412.59 344.72 402.56 341.94 391.1 341.31 388.55 331.46 389.62" style="fill:#eec1bb"></polygon><polygon points="332.81 392.36 338.37 403.64 344.72 402.56 341.94 391.1 332.81 392.36" style="isolation:isolate;opacity:0.2"></polygon><path d="M347.92,314.16s2.5,20.14,13.62,36c0,0,23.73-3,29-4.53-3.29-9.72-5.26-16.2-6.62-34.43-.33-4.4-4.31-6.93-8.65-6.14a50.31,50.31,0,0,0-12.57,2.46C357.4,309.29,347.92,314.16,347.92,314.16Z" style="fill:#263238"></path><path d="M395.14,363s3,18.78-10.76,20.66c-22.58,3.08-43.63-19.19-46.24-19.14s7.52,36.19,7.52,36.19l-10.12,1.5s-18.25-44.51-13.82-54.09S379.15,363.31,395.14,363Z" style="fill:#00DAAA"></path><path d="M347.75,409.42c0-.6-7.41-.14-7.41-.14s-4.55,4.63-9,5.66-1.95,3.69,3,3.69l12.21,0C350.08,418.65,347.89,415.66,347.75,409.42Z" style="fill:#263238"></path><path d="M337.12,410.59a1,1,0,0,1-.65-.18.7.7,0,0,1-.18-.79.8.8,0,0,1,.39-.5,3.11,3.11,0,0,1,1.66-.18c-.6-.32-1.13-.71-1.15-1.1s.15-.46.49-.62a1.11,1.11,0,0,1,1,0c1,.41,1.61,2.13,1.64,2.21a.12.12,0,0,1,0,.08h0a.15.15,0,0,1,0,.07h0l0,.05h0s0,0-.06.05A9.42,9.42,0,0,1,337.12,410.59Zm.63-1.29a1.78,1.78,0,0,0-.87.16.38.38,0,0,0-.21.26c-.08.29,0,.37,0,.39.35.29,1.71-.12,2.8-.58A9,9,0,0,0,337.75,409.3Zm.44-1.81a.69.69,0,0,0-.34.09c-.11,0-.27.14-.27.24,0,.33,1.08.91,2.17,1.33a3.24,3.24,0,0,0-1.26-1.59A.87.87,0,0,0,338.19,407.49Z" style="fill:#00DAAA"></path><path d="M347.92,314.16A91,91,0,0,0,351.4,329a79.27,79.27,0,0,0,10.14,21.21s23.73-3,29-4.53c-.63-1.82-1.2-3.54-1.73-5.24a95.84,95.84,0,0,1-3.77-17.71c-.36-2.83-.68-6-1-9.76,0-.56-.08-1.12-.13-1.71-.32-4.41-4.31-6.93-8.65-6.15-.62.11-1.93.14-4,.43l-.56.07a52.69,52.69,0,0,0-8,2c-1.32.42-2.87,1-4.49,1.73h0C353.3,311.4,347.92,314.16,347.92,314.16Z" style="fill:#fff;opacity:0.6000000000000001"></path><path d="M358.32,306.5a7.27,7.27,0,0,1,1.75,3.57,1.89,1.89,0,0,1-.48,1.69c.47,3,4.45,2.71,4.45,2.71,4.84-4.73,4.72-8.24,4.72-8.24A7.49,7.49,0,0,1,363.1,302a14.8,14.8,0,0,1-1.54-4.14L356,304A23,23,0,0,1,358.32,306.5Z" style="fill:#eec1bb"></path><path d="M356,304a23,23,0,0,1,2.3,2.53,7.27,7.27,0,0,1,1.75,3.57,11.14,11.14,0,0,0,3-8,14.8,14.8,0,0,1-1.54-4.14Z" style="isolation:isolate;opacity:0.2"></path><path d="M359.24,300.54s9.37-.16,7.28-12.53-21.56-12.27-21-1S359.24,300.54,359.24,300.54Z" style="fill:#263238"></path><path d="M362.33,287.37c1.46,6.92,2.22,9.8-.16,14.4-3.58,6.92-12.16,7.61-15.6,1.37-3.1-5.61-5-16,.76-20.84A9.05,9.05,0,0,1,362.33,287.37Z" style="fill:#eec1bb"></path><path d="M354.89,285c5.44,3.1.35,11.37,7.49,8s-.07-12.36-5.36-12.9S354.89,285,354.89,285Z" style="fill:#263238"></path><path d="M352.61,292.66c.15.58,0,1.14-.38,1.26s-.76-.25-.91-.83,0-1.13.38-1.25S352.47,292.09,352.61,292.66Z" style="fill:#263238"></path><path d="M345.9,295c.15.57,0,1.14-.38,1.26s-.76-.26-.91-.83,0-1.14.38-1.26S345.76,294.42,345.9,295Z" style="fill:#263238"></path><path d="M345.16,294.15l-1.42,0S344.69,295.05,345.16,294.15Z" style="fill:#263238"></path><path d="M348,295.32a17.32,17.32,0,0,1-1,4.32,2.37,2.37,0,0,0,2.06-.27Z" style="fill:#d4827d"></path><path d="M354.27,298a5.16,5.16,0,0,1,.94-.27.16.16,0,0,1,.19.14.19.19,0,0,1-.14.2,4.93,4.93,0,0,0-3.43,2.54.19.19,0,0,1-.23.1.18.18,0,0,1-.08-.23A5.2,5.2,0,0,1,354.27,298Z" style="fill:#263238"></path><path d="M365.52,293.3a4.86,4.86,0,0,1-1.73,3.52c-1.33,1-2.69-.43-2.9-2.34-.19-1.73.27-4.33,1.88-4.57S365.65,291.48,365.52,293.3Z" style="fill:#eec1bb"></path><path d="M350.46,287.91a.31.31,0,0,1,.24.1,2.58,2.58,0,0,0,2.29.76.32.32,0,0,1,.39.26.38.38,0,0,1-.28.42,3.19,3.19,0,0,1-2.9-.94.36.36,0,0,1,0-.49A.44.44,0,0,1,350.46,287.91Z" style="fill:#263238"></path><path d="M344.59,289.61a.34.34,0,0,1,.24-.06.35.35,0,0,1,.27.41,3.62,3.62,0,0,1-1.79,2.67.31.31,0,0,1-.43-.17.38.38,0,0,1,.17-.47,2.89,2.89,0,0,0,1.39-2.14A.43.43,0,0,1,344.59,289.61Z" style="fill:#263238"></path><path d="M351.87,291.82l-1.42,0S351.4,292.71,351.87,291.82Z" style="fill:#263238"></path><path d="M355.18,278.64s-11.36-1.57-11.76,4c-.57,7.74,12.76,6.11,12.76,6.11s-2.8.32-8.69-3.34c0,0,9.27,3.87,13.36,2.64S362.72,279.83,355.18,278.64Z" style="fill:#263238"></path><path d="M373.2,315.48s8.14,6.36,11.85,7.25c-.36-2.83-.68-6-1-9.76-2.09-2.23-5.32-3.64-9.88-2.43A19.45,19.45,0,0,0,373.2,315.48Z" style="isolation:isolate;opacity:0.2"></path><path d="M384.43,313.08c-2.17,8.83-4.39,17.55-8.68,25.68a16.14,16.14,0,0,1-1.25,1.88,7.43,7.43,0,0,1-3.61,2.43c-7.64,1.93-17.11-3.4-23.7-6.72-2.22-1.25-4.39-2.49-6.54-3.92a2.19,2.19,0,0,1,2-3.85c6.6,2.68,13.5,5.51,20.45,6.92,1.57.31,4.05.65,5.26.17.18-.11-.11,0-.19.13s0,0,0,0c3.68-7.71,5.34-16.52,7.65-24.75a4.4,4.4,0,0,1,8.55,2.07Z" style="fill:#eabdbd"></path><path d="M376.5,305.66c3.94-1.58,10.52,1.41,8.67,11.32l-11-1.73S373.27,307,376.5,305.66Z" style="fill:#263238"></path><path d="M376.5,305.66c3.94-1.58,10.52,1.41,8.67,11.32l-11-1.73S373.27,307,376.5,305.66Z" style="fill:#fff;opacity:0.6000000000000001"></path><polygon points="385.67 316.01 373.92 314.1 373.85 315.38 385.49 317.82 385.67 316.01" style="fill:#00DAAA"></polygon><path d="M321,326.53s5.24,3.16,6.61,3.69,12.17-1.83,12.17-1.83-.86-2.61-2.69-2.92-1.91-1.25-3.9-2-4.18-.94-5-.5-.61,1.4-2.65,1.19S321,326.53,321,326.53Z" style="fill:#263238"></path><path d="M346,330l-5.22-3.47-1,7.27s4.06,1.24,7.19-1.33Z" style="fill:#ffc3bd"></path><polygon points="334.64 327.07 334.93 332.6 339.82 333.8 340.79 326.53 334.64 327.07" style="fill:#ffc3bd"></polygon></g></svg>